<mxfile host="Electron" agent="Mozilla/5.0 (Macintosh; Intel Mac OS X 10_15_7) AppleWebKit/537.36 (KHTML, like Gecko) draw.io/27.0.9 Chrome/134.0.6998.205 Electron/35.4.0 Safari/537.36" version="27.0.9">
  <diagram name="AWS News to Slack Architecture" id="aws-news-architecture">
    <mxGraphModel dx="851" dy="955" grid="0" gridSize="10" guides="1" tooltips="1" connect="1" arrows="1" fold="1" page="0" pageScale="1" pageWidth="1169" pageHeight="827" math="0" shadow="0">
      <root>
        <mxCell id="0" />
        <mxCell id="1" parent="0" />
        <mxCell id="aws-cloud" value="" style="sketch=0;outlineConnect=0;gradientColor=none;html=1;whiteSpace=wrap;fontSize=12;fontStyle=0;shape=mxgraph.aws4.group;grIcon=mxgraph.aws4.group_aws_cloud;strokeColor=#232F3E;fillColor=none;verticalAlign=top;align=left;spacingLeft=30;fontColor=#232F3E;dashed=0;" parent="1" vertex="1">
          <mxGeometry x="80" y="80" width="881" height="600" as="geometry" />
        </mxCell>
        <mxCell id="eventbridge" value="Amazon EventBridge" style="sketch=0;points=[[0,0,0],[0.25,0,0],[0.5,0,0],[0.75,0,0],[1,0,0],[0,1,0],[0.25,1,0],[0.5,1,0],[0.75,1,0],[1,1,0],[0,0.25,0],[0,0.5,0],[0,0.75,0],[1,0.25,0],[1,0.5,0],[1,0.75,0]];outlineConnect=0;fontColor=#232F3E;gradientColor=#FF4F8B;gradientDirection=north;fillColor=#BC1356;strokeColor=#ffffff;dashed=0;verticalLabelPosition=bottom;verticalAlign=top;align=center;html=1;fontSize=12;fontStyle=0;aspect=fixed;shape=mxgraph.aws4.resourceIcon;resIcon=mxgraph.aws4.eventbridge;" parent="1" vertex="1">
          <mxGeometry x="140" y="140" width="78" height="78" as="geometry" />
        </mxCell>
        <mxCell id="lambda" value="AWS Lambda&#xa;(News Processor)" style="sketch=0;points=[[0,0,0],[0.25,0,0],[0.5,0,0],[0.75,0,0],[1,0,0],[0,1,0],[0.25,1,0],[0.5,1,0],[0.75,1,0],[1,1,0],[0,0.25,0],[0,0.5,0],[0,0.75,0],[1,0.25,0],[1,0.5,0],[1,0.75,0]];outlineConnect=0;fontColor=#232F3E;gradientColor=#F78E04;gradientDirection=north;fillColor=#D05C17;strokeColor=#ffffff;dashed=0;verticalLabelPosition=bottom;verticalAlign=top;align=center;html=1;fontSize=12;fontStyle=0;aspect=fixed;shape=mxgraph.aws4.resourceIcon;resIcon=mxgraph.aws4.lambda;" parent="1" vertex="1">
          <mxGeometry x="400" y="140" width="78" height="78" as="geometry" />
        </mxCell>
        <mxCell id="dynamodb" value="Amazon DynamoDB&#xa;(ProcessedNews)" style="sketch=0;points=[[0,0,0],[0.25,0,0],[0.5,0,0],[0.75,0,0],[1,0,0],[0,1,0],[0.25,1,0],[0.5,1,0],[0.75,1,0],[1,1,0],[0,0.25,0],[0,0.5,0],[0,0.75,0],[1,0.25,0],[1,0.5,0],[1,0.75,0]];outlineConnect=0;fontColor=#232F3E;gradientColor=#4D72F3;gradientDirection=north;fillColor=#3334B9;strokeColor=#ffffff;dashed=0;verticalLabelPosition=bottom;verticalAlign=top;align=center;html=1;fontSize=12;fontStyle=0;aspect=fixed;shape=mxgraph.aws4.resourceIcon;resIcon=mxgraph.aws4.dynamodb;" parent="1" vertex="1">
          <mxGeometry x="626" y="355" width="78" height="78" as="geometry" />
        </mxCell>
        <mxCell id="bedrock" value="Amazon Bedrock&#xa;(Claude 3 Haiku)" style="sketch=0;points=[[0,0,0],[0.25,0,0],[0.5,0,0],[0.75,0,0],[1,0,0],[0,1,0],[0.25,1,0],[0.5,1,0],[0.75,1,0],[1,1,0],[0,0.25,0],[0,0.5,0],[0,0.75,0],[1,0.25,0],[1,0.5,0],[1,0.75,0]];outlineConnect=0;fontColor=#232F3E;gradientColor=#4AB29A;gradientDirection=north;fillColor=#116D5B;strokeColor=#ffffff;dashed=0;verticalLabelPosition=bottom;verticalAlign=top;align=center;html=1;fontSize=12;fontStyle=0;aspect=fixed;shape=mxgraph.aws4.resourceIcon;resIcon=mxgraph.aws4.bedrock;" parent="1" vertex="1">
          <mxGeometry x="271" y="359" width="78" height="78" as="geometry" />
        </mxCell>
        <mxCell id="cloudwatch" value="Amazon CloudWatch&#xa;Logs" style="sketch=0;points=[[0,0,0],[0.25,0,0],[0.5,0,0],[0.75,0,0],[1,0,0],[0,1,0],[0.25,1,0],[0.5,1,0],[0.75,1,0],[1,1,0],[0,0.25,0],[0,0.5,0],[0,0.75,0],[1,0.25,0],[1,0.5,0],[1,0.75,0]];outlineConnect=0;fontColor=#232F3E;gradientColor=#F34482;gradientDirection=north;fillColor=#BC1356;strokeColor=#ffffff;dashed=0;verticalLabelPosition=bottom;verticalAlign=top;align=center;html=1;fontSize=12;fontStyle=0;aspect=fixed;shape=mxgraph.aws4.resourceIcon;resIcon=mxgraph.aws4.cloudwatch_2;" parent="1" vertex="1">
          <mxGeometry x="800" y="140" width="78" height="78" as="geometry" />
        </mxCell>
        <mxCell id="rss-feed" value="AWS RSS Feed&#xa;(What&#39;s New)" style="sketch=0;outlineConnect=0;fontColor=#232F3E;gradientColor=none;fillColor=#232F3D;strokeColor=none;dashed=0;verticalLabelPosition=bottom;verticalAlign=top;align=center;html=1;fontSize=12;fontStyle=0;aspect=fixed;pointerEvents=1;shape=mxgraph.aws4.internet;" parent="1" vertex="1">
          <mxGeometry x="400" y="-7" width="78" height="48" as="geometry" />
        </mxCell>
        <mxCell id="slack" value="Slack Webhook" style="sketch=0;outlineConnect=0;fontColor=#232F3E;gradientColor=none;fillColor=#4AB29A;strokeColor=none;dashed=0;verticalLabelPosition=bottom;verticalAlign=top;align=center;html=1;fontSize=12;fontStyle=0;aspect=fixed;pointerEvents=1;shape=mxgraph.aws4.external_sdk;" parent="1" vertex="1">
          <mxGeometry x="400" y="500" width="78" height="78" as="geometry" />
        </mxCell>
        <mxCell id="arrow1" value="Trigger&#xa;(Schedule)" style="edgeStyle=orthogonalEdgeStyle;html=1;endArrow=block;elbow=vertical;startArrow=none;endFill=1;strokeColor=#545B64;rounded=0;" parent="1" source="eventbridge" target="lambda" edge="1">
          <mxGeometry width="100" relative="1" as="geometry">
            <mxPoint x="250" y="179" as="sourcePoint" />
            <mxPoint x="350" y="179" as="targetPoint" />
          </mxGeometry>
        </mxCell>
        <mxCell id="arrow2" value="Fetch News" style="edgeStyle=orthogonalEdgeStyle;html=1;endArrow=block;elbow=vertical;startArrow=none;endFill=1;strokeColor=#545B64;rounded=0;" parent="1" source="lambda" target="rss-feed" edge="1">
          <mxGeometry width="100" relative="1" as="geometry">
            <mxPoint x="439" y="140" as="sourcePoint" />
            <mxPoint x="439" y="80" as="targetPoint" />
          </mxGeometry>
        </mxCell>
        <mxCell id="arrow3" value="Summarize&#xa;News" style="edgeStyle=orthogonalEdgeStyle;html=1;endArrow=block;elbow=vertical;startArrow=none;endFill=1;strokeColor=#545B64;rounded=0;exitX=0;exitY=0.75;exitDx=0;exitDy=0;exitPerimeter=0;" parent="1" source="lambda" target="bedrock" edge="1">
          <mxGeometry width="100" relative="1" as="geometry">
            <mxPoint x="400" y="220" as="sourcePoint" />
            <mxPoint x="300" y="300" as="targetPoint" />
          </mxGeometry>
        </mxCell>
        <mxCell id="arrow4" value="Store/Check&#xa;Processed News" style="edgeStyle=orthogonalEdgeStyle;html=1;endArrow=block;elbow=vertical;startArrow=none;endFill=1;strokeColor=#545B64;rounded=0;" parent="1" source="lambda" target="dynamodb" edge="1">
          <mxGeometry width="100" relative="1" as="geometry">
            <mxPoint x="480" y="220" as="sourcePoint" />
            <mxPoint x="600" y="300" as="targetPoint" />
          </mxGeometry>
        </mxCell>
        <mxCell id="arrow5" value="" style="edgeStyle=orthogonalEdgeStyle;html=1;endArrow=block;elbow=vertical;startArrow=none;endFill=1;strokeColor=#545B64;rounded=0;" parent="1" source="lambda" target="slack" edge="1">
          <mxGeometry width="100" relative="1" as="geometry">
            <mxPoint x="439" y="220" as="sourcePoint" />
            <mxPoint x="439" y="480" as="targetPoint" />
          </mxGeometry>
        </mxCell>
        <mxCell id="arrow6" value="" style="edgeStyle=orthogonalEdgeStyle;html=1;endArrow=block;elbow=vertical;startArrow=none;endFill=1;strokeColor=#545B64;rounded=0;" parent="1" source="lambda" target="cloudwatch" edge="1">
          <mxGeometry width="100" relative="1" as="geometry">
            <mxPoint x="480" y="179" as="sourcePoint" />
            <mxPoint x="780" y="179" as="targetPoint" />
          </mxGeometry>
        </mxCell>
        <mxCell id="process-title" value="AWS News to Slack Bot - Architecture" style="text;html=1;strokeColor=none;fillColor=none;align=center;verticalAlign=middle;whiteSpace=wrap;rounded=0;fontSize=16;fontStyle=1;fontColor=#232F3E;" parent="1" vertex="1">
          <mxGeometry x="489" y="11" width="300" height="30" as="geometry" />
        </mxCell>
        <mxCell id="step1" value="1. EventBridge triggers Lambda on schedule" style="text;html=1;strokeColor=none;fillColor=#E6F3FF;align=left;verticalAlign=middle;whiteSpace=wrap;rounded=1;fontSize=10;fontColor=#232F3E;" parent="1" vertex="1">
          <mxGeometry x="91" y="244" width="180" height="30" as="geometry" />
        </mxCell>
        <mxCell id="step2" value="2. Lambda fetches latest AWS news from RSS" style="text;html=1;strokeColor=none;fillColor=#E6F3FF;align=left;verticalAlign=middle;whiteSpace=wrap;rounded=1;fontSize=10;fontColor=#232F3E;" parent="1" vertex="1">
          <mxGeometry x="359" y="263" width="180" height="30" as="geometry" />
        </mxCell>
        <mxCell id="step3" value="3. Check DynamoDB for already processed news" style="text;html=1;strokeColor=none;fillColor=#E6F3FF;align=left;verticalAlign=middle;whiteSpace=wrap;rounded=1;fontSize=10;fontColor=#232F3E;" parent="1" vertex="1">
          <mxGeometry x="582" y="297" width="180" height="30" as="geometry" />
        </mxCell>
        <mxCell id="step4" value="4. Use Bedrock Claude to summarize new news in Korean" style="text;html=1;strokeColor=none;fillColor=#E6F3FF;align=left;verticalAlign=middle;whiteSpace=wrap;rounded=1;fontSize=10;fontColor=#232F3E;" parent="1" vertex="1">
          <mxGeometry x="220" y="478" width="180" height="30" as="geometry" />
        </mxCell>
        <mxCell id="step5" value="5. Send formatted summary to Slack channel" style="text;html=1;strokeColor=none;fillColor=#E6F3FF;align=left;verticalAlign=middle;whiteSpace=wrap;rounded=1;fontSize=10;fontColor=#232F3E;" parent="1" vertex="1">
          <mxGeometry x="356" y="606" width="180" height="30" as="geometry" />
        </mxCell>
        <mxCell id="step6" value="6. Store processed news ID in DynamoDB" style="text;html=1;strokeColor=none;fillColor=#E6F3FF;align=left;verticalAlign=middle;whiteSpace=wrap;rounded=1;fontSize=10;fontColor=#232F3E;" parent="1" vertex="1">
          <mxGeometry x="582" y="478" width="180" height="30" as="geometry" />
        </mxCell>
        <mxCell id="step7" value="7. Log all activities to CloudWatch" style="text;html=1;strokeColor=none;fillColor=#E6F3FF;align=left;verticalAlign=middle;whiteSpace=wrap;rounded=1;fontSize=10;fontColor=#232F3E;" parent="1" vertex="1">
          <mxGeometry x="756" y="257" width="180" height="30" as="geometry" />
        </mxCell>
        <mxCell id="PQUPKqQC5PgIzIWN-0pl-1" value="&lt;font style=&quot;font-size: 11px;&quot;&gt;Send&lt;/font&gt;&lt;div&gt;&lt;font style=&quot;font-size: 11px;&quot;&gt;Summary&lt;/font&gt;&lt;/div&gt;" style="rounded=0;whiteSpace=wrap;html=1;strokeColor=none;" vertex="1" parent="1">
          <mxGeometry x="407.5" y="339" width="63" height="27" as="geometry" />
        </mxCell>
      </root>
    </mxGraphModel>
  </diagram>
</mxfile>
